<svg width="200" height="200" viewBox="0 0 200 200" fill="none" xmlns="http://www.w3.org/2000/svg">
<circle cx="100" cy="100" r="100" fill="black"/>
<path d="M138.786 51C145.413 51.0002 150.786 56.3727 150.786 63V137C150.786 143.627 145.413 149 138.786 149H69.2168C65.3242 149 61.6733 147.111 59.4238 143.935L33.3682 107.136C33.1999 106.906 33.0404 106.671 32.8887 106.431C31.6268 104.456 31.0319 102.318 31 100.221V99.7793C31.0319 97.6814 31.6265 95.5429 32.8887 93.5684C33.0514 93.3109 33.2226 93.0584 33.4043 92.8135L59.4238 56.0654C61.6733 52.8886 65.3242 51.0002 69.2168 51H138.786Z" fill="white"/>
</svg>
